<svg xmlns="http://www.w3.org/2000/svg" version="1.1" xmlns:xlink="http://www.w3.org/1999/xlink" xmlns:svgjs="http://svgjs.dev/svgjs" viewBox="0 0 800 800"><circle r="13" cx="732" cy="119" fill="hsl(287, 50%, 50%)" opacity="0.48"></circle><circle r="8" cx="780" cy="329" fill="hsl(216, 50%, 50%)" opacity="0.21"></circle><circle r="6" cx="604" cy="615" fill="hsl(194, 50%, 50%)" opacity="0.76"></circle><circle r="8.5" cx="45" cy="518" stroke-width="2" stroke="hsl(270, 50%, 50%)" fill="none" opacity="0.31"></circle><circle r="8.5" cx="550" cy="338" fill="hsl(144, 50%, 50%)" opacity="0.52"></circle><circle r="19" cx="48" cy="288" fill="hsl(270, 50%, 50%)" opacity="0.87"></circle><circle r="7" cx="567" cy="382" fill="hsl(168, 50%, 50%)" opacity="0.32"></circle><circle r="5.5" cx="408" cy="603" stroke-width="2" stroke="hsl(48, 50%, 50%)" fill="none" opacity="0.13"></circle><circle r="9.5" cx="116" cy="782" fill="hsl(263, 50%, 50%)" opacity="0.96"></circle><circle r="9.5" cx="574" cy="662" fill="hsl(168, 50%, 50%)" opacity="0.61"></circle><circle r="8" cx="464" cy="79" stroke-width="2" stroke="hsl(90, 50%, 50%)" fill="none" opacity="0.19"></circle><circle r="9" cx="757" cy="396" stroke-width="2" stroke="hsl(216, 50%, 50%)" fill="none" opacity="0.76"></circle><circle r="10" cx="86" cy="540" fill="hsl(271, 50%, 50%)" opacity="0.98"></circle><circle r="6" cx="518" cy="126" stroke-width="2" stroke="hsl(135, 50%, 50%)" fill="none" opacity="0.91"></circle><circle r="7" cx="623" cy="593" fill="hsl(200, 50%, 50%)" opacity="0.41"></circle><circle r="16" cx="106" cy="141" fill="hsl(276, 50%, 50%)" opacity="0.91"></circle><circle r="10.5" cx="103" cy="577" fill="hsl(266, 50%, 50%)" opacity="0.98"></circle><circle r="4" cx="558" cy="498" stroke-width="2" stroke="hsl(156, 50%, 50%)" fill="none" opacity="0.99"></circle><circle r="8.5" cx="173" cy="76" stroke-width="2" stroke="hsl(228, 50%, 50%)" fill="none" opacity="0.60"></circle><circle r="6.5" cx="453" cy="148" fill="hsl(77, 50%, 50%)" opacity="0.85"></circle><circle r="4.5" cx="330" cy="463" stroke-width="2" stroke="hsl(83, 50%, 50%)" fill="none" opacity="0.28"></circle><circle r="16.5" cx="95" cy="223" stroke-width="2" stroke="hsl(269, 50%, 50%)" fill="none" opacity="0.82"></circle><circle r="8.5" cx="288" cy="99" stroke-width="2" stroke="hsl(126, 50%, 50%)" fill="none" opacity="0.88"></circle><circle r="16.5" cx="23" cy="346" fill="hsl(265, 50%, 50%)" opacity="0.88"></circle><circle r="7.5" cx="517" cy="166" fill="hsl(129, 50%, 50%)" opacity="0.30"></circle><circle r="7" cx="448" cy="297" stroke-width="2" stroke="hsl(56, 50%, 50%)" fill="none" opacity="0.66"></circle><circle r="12" cx="172" cy="532" fill="hsl(236, 50%, 50%)" opacity="0.18"></circle><circle r="6" cx="523" cy="463" stroke-width="2" stroke="hsl(119, 50%, 50%)" fill="none" opacity="0.73"></circle><circle r="9" cx="76" cy="36" stroke-width="2" stroke="hsl(223, 50%, 50%)" fill="none" opacity="0.59"></circle><circle r="11.5" cx="212" cy="154" stroke-width="2" stroke="hsl(203, 50%, 50%)" fill="none" opacity="0.87"></circle><circle r="3.5" cx="392" cy="555" stroke-width="2" stroke="hsl(49, 50%, 50%)" fill="none" opacity="0.49"></circle><circle r="10.5" cx="681" cy="87" fill="hsl(275, 50%, 50%)" opacity="0.57"></circle><circle r="7" cx="320" cy="703" stroke-width="2" stroke="hsl(94, 50%, 50%)" fill="none" opacity="0.94"></circle><circle r="6" cx="603" cy="469" stroke-width="2" stroke="hsl(194, 50%, 50%)" fill="none" opacity="0.84"></circle><circle r="6.5" cx="424" cy="116" stroke-width="2" stroke="hsl(67, 50%, 50%)" fill="none" opacity="0.65"></circle><circle r="12.5" cx="157" cy="233" fill="hsl(245, 50%, 50%)" opacity="0.99"></circle><circle r="10" cx="216" cy="780" fill="hsl(195, 50%, 50%)" opacity="0.95"></circle><circle r="10" cx="528" cy="679" stroke-width="2" stroke="hsl(131, 50%, 50%)" fill="none" opacity="0.66"></circle><circle r="6" cx="323" cy="266" fill="hsl(94, 50%, 50%)" opacity="0.97"></circle><circle r="10.5" cx="98" cy="705" stroke-width="2" stroke="hsl(269, 50%, 50%)" fill="none" opacity="0.30"></circle><circle r="6" cx="542" cy="103" stroke-width="2" stroke="hsl(159, 50%, 50%)" fill="none" opacity="0.83"></circle><circle r="7.5" cx="343" cy="665" stroke-width="2" stroke="hsl(73, 50%, 50%)" fill="none" opacity="0.70"></circle><circle r="11" cx="181" cy="372" fill="hsl(227, 50%, 50%)" opacity="0.36"></circle><circle r="6.5" cx="376" cy="466" fill="hsl(52, 50%, 50%)" opacity="0.93"></circle><circle r="5" cx="335" cy="298" fill="hsl(83, 50%, 50%)" opacity="0.73"></circle><circle r="13" cx="26" cy="106" fill="hsl(293, 50%, 50%)" opacity="0.53"></circle><circle r="5" cx="364" cy="323" fill="hsl(58, 50%, 50%)" opacity="0.62"></circle><circle r="8" cx="115" cy="470" fill="hsl(263, 50%, 50%)" opacity="0.88"></circle><circle r="8" cx="548" cy="197" fill="hsl(144, 50%, 50%)" opacity="0.48"></circle><circle r="9" cx="596" cy="249" fill="hsl(186, 50%, 50%)" opacity="0.17"></circle><circle r="6" cx="353" cy="521" stroke-width="2" stroke="hsl(65, 50%, 50%)" fill="none" opacity="0.82"></circle><circle r="11.5" cx="259" cy="531" stroke-width="2" stroke="hsl(157, 50%, 50%)" fill="none" opacity="0.51"></circle><circle r="6.5" cx="12" cy="36" fill="hsl(228, 50%, 50%)" opacity="0.93"></circle><circle r="11.5" cx="719" cy="452" fill="hsl(215, 50%, 50%)" opacity="0.11"></circle><circle r="16" cx="652" cy="129" stroke-width="2" stroke="hsl(254, 50%, 50%)" fill="none" opacity="0.97"></circle><circle r="11.5" cx="19" cy="407" stroke-width="2" stroke="hsl(265, 50%, 50%)" fill="none" opacity="0.11"></circle><circle r="6.5" cx="399" cy="416" fill="hsl(49, 50%, 50%)" opacity="0.62"></circle><circle r="6" cx="478" cy="122" stroke-width="2" stroke="hsl(100, 50%, 50%)" fill="none" opacity="0.76"></circle><circle r="5.5" cx="464" cy="193" stroke-width="2" stroke="hsl(72, 50%, 50%)" fill="none" opacity="0.75"></circle><circle r="6.5" cx="269" cy="368" stroke-width="2" stroke="hsl(144, 50%, 50%)" fill="none" opacity="0.67"></circle><circle r="6.5" cx="396" cy="509" fill="hsl(49, 50%, 50%)" opacity="0.50"></circle><circle r="12.5" cx="92" cy="615" stroke-width="2" stroke="hsl(269, 50%, 50%)" fill="none" opacity="0.27"></circle><circle r="13" cx="639" cy="179" fill="hsl(218, 50%, 50%)" opacity="0.47"></circle><circle r="14" cx="17" cy="684" stroke-width="2" stroke="hsl(265, 50%, 50%)" fill="none" opacity="0.56"></circle><circle r="11" cx="125" cy="319" fill="hsl(258, 50%, 50%)" opacity="0.52"></circle><circle r="10" cx="147" cy="412" stroke-width="2" stroke="hsl(252, 50%, 50%)" fill="none" opacity="0.72"></circle><circle r="9.5" cx="528" cy="267" stroke-width="2" stroke="hsl(131, 50%, 50%)" fill="none" opacity="0.58"></circle><circle r="10" cx="631" cy="73" fill="hsl(232, 50%, 50%)" opacity="0.86"></circle><circle r="11.5" cx="292" cy="228" fill="hsl(119, 50%, 50%)" opacity="0.63"></circle><circle r="11.5" cx="745" cy="774" fill="hsl(216, 50%, 50%)" opacity="0.81"></circle><circle r="7.5" cx="645" cy="309" fill="hsl(208, 50%, 50%)" opacity="0.15"></circle><circle r="12" cx="132" cy="682" stroke-width="2" stroke="hsl(258, 50%, 50%)" fill="none" opacity="0.78"></circle><circle r="9.5" cx="500" cy="315" stroke-width="2" stroke="hsl(94, 50%, 50%)" fill="none" opacity="0.77"></circle><circle r="9" cx="291" cy="165" stroke-width="2" stroke="hsl(116, 50%, 50%)" fill="none" opacity="0.36"></circle><circle r="7" cx="560" cy="78" stroke-width="2" stroke="hsl(163, 50%, 50%)" fill="none" opacity="0.86"></circle><circle r="6.5" cx="513" cy="67" stroke-width="2" stroke="hsl(123, 50%, 50%)" fill="none" opacity="0.78"></circle><circle r="12" cx="670" cy="653" stroke-width="2" stroke="hsl(212, 50%, 50%)" fill="none" opacity="0.71"></circle><circle r="9" cx="85" cy="774" fill="hsl(271, 50%, 50%)" opacity="0.52"></circle><circle r="6" cx="330" cy="574" stroke-width="2" stroke="hsl(83, 50%, 50%)" fill="none" opacity="0.51"></circle><circle r="6.5" cx="300" cy="561" stroke-width="2" stroke="hsl(106, 50%, 50%)" fill="none" opacity="0.93"></circle><circle r="6" cx="424" cy="19" fill="hsl(86, 50%, 50%)" opacity="0.24"></circle><circle r="7" cx="549" cy="546" stroke-width="2" stroke="hsl(144, 50%, 50%)" fill="none" opacity="0.64"></circle><circle r="6" cx="384" cy="135" stroke-width="2" stroke="hsl(64, 50%, 50%)" fill="none" opacity="0.20"></circle><circle r="12" cx="52" cy="650" fill="hsl(271, 50%, 50%)" opacity="0.72"></circle><circle r="7" cx="558" cy="455" fill="hsl(156, 50%, 50%)" opacity="0.75"></circle><circle r="10.5" cx="780" cy="267" stroke-width="2" stroke="hsl(216, 50%, 50%)" fill="none" opacity="0.96"></circle><circle r="5.5" cx="479" cy="479" fill="hsl(82, 50%, 50%)" opacity="0.53"></circle><circle r="11.5" cx="244" cy="477" stroke-width="2" stroke="hsl(170, 50%, 50%)" fill="none" opacity="0.18"></circle><circle r="5" cx="191" cy="262" fill="hsl(217, 50%, 50%)" opacity="0.36"></circle><circle r="10.5" cx="229" cy="721" fill="hsl(183, 50%, 50%)" opacity="0.67"></circle><circle r="10.5" cx="567" cy="299" fill="hsl(168, 50%, 50%)" opacity="0.24"></circle><circle r="14" cx="125" cy="534" fill="hsl(263, 50%, 50%)" opacity="0.93"></circle><circle r="5" cx="376" cy="384" stroke-width="2" stroke="hsl(52, 50%, 50%)" fill="none" opacity="0.55"></circle><circle r="14.5" cx="720" cy="513" fill="hsl(215, 50%, 50%)" opacity="0.31"></circle><circle r="15.5" cx="108" cy="277" fill="hsl(266, 50%, 50%)" opacity="0.24"></circle><circle r="7" cx="630" cy="507" fill="hsl(204, 50%, 50%)" opacity="0.86"></circle><circle r="15.5" cx="763" cy="620" fill="hsl(216, 50%, 50%)" opacity="0.84"></circle><circle r="5.5" cx="349" cy="356" stroke-width="2" stroke="hsl(73, 50%, 50%)" fill="none" opacity="0.44"></circle><circle r="8" cx="255" cy="428" fill="hsl(157, 50%, 50%)" opacity="0.88"></circle><circle r="9" cx="654" cy="591" fill="hsl(210, 50%, 50%)" opacity="0.63"></circle><circle r="7.5" cx="467" cy="251" fill="hsl(72, 50%, 50%)" opacity="0.77"></circle><circle r="4.5" cx="390" cy="664" fill="hsl(49, 50%, 50%)" opacity="0.41"></circle><circle r="6.5" cx="307" cy="522" stroke-width="2" stroke="hsl(106, 50%, 50%)" fill="none" opacity="0.69"></circle><circle r="11.5" cx="713" cy="636" stroke-width="2" stroke="hsl(215, 50%, 50%)" fill="none" opacity="0.71"></circle><circle r="7.5" cx="566" cy="609" stroke-width="2" stroke="hsl(168, 50%, 50%)" fill="none" opacity="0.13"></circle><circle r="12" cx="73" cy="348" stroke-width="2" stroke="hsl(271, 50%, 50%)" fill="none" opacity="0.63"></circle><circle r="9.5" cx="619" cy="769" fill="hsl(200, 50%, 50%)" opacity="0.58"></circle><circle r="11" cx="51" cy="456" stroke-width="2" stroke="hsl(271, 50%, 50%)" fill="none" opacity="0.31"></circle><circle r="15" cx="764" cy="219" stroke-width="2" stroke="hsl(216, 50%, 50%)" fill="none" opacity="0.36"></circle><circle r="7.5" cx="42" cy="29" fill="hsl(227, 50%, 50%)" opacity="0.48"></circle><circle r="6.5" cx="274" cy="678" fill="hsl(144, 50%, 50%)" opacity="0.23"></circle><circle r="6" cx="256" cy="396" stroke-width="2" stroke="hsl(157, 50%, 50%)" fill="none" opacity="1.00"></circle><circle r="15.5" cx="773" cy="164" fill="hsl(246, 50%, 50%)" opacity="0.16"></circle><circle r="6" cx="426" cy="60" fill="hsl(79, 50%, 50%)" opacity="0.30"></circle><circle r="10" cx="624" cy="676" stroke-width="2" stroke="hsl(200, 50%, 50%)" fill="none" opacity="0.15"></circle><circle r="8.5" cx="143" cy="82" stroke-width="2" stroke="hsl(242, 50%, 50%)" fill="none" opacity="0.19"></circle><circle r="11" cx="699" cy="594" fill="hsl(214, 50%, 50%)" opacity="0.49"></circle><circle r="9.5" cx="284" cy="636" fill="hsl(131, 50%, 50%)" opacity="0.26"></circle><circle r="13" cx="93" cy="659" stroke-width="2" stroke="hsl(269, 50%, 50%)" fill="none" opacity="0.47"></circle><circle r="12.5" cx="28" cy="618" stroke-width="2" stroke="hsl(268, 50%, 50%)" fill="none" opacity="0.97"></circle><circle r="8" cx="785" cy="125" stroke-width="2" stroke="hsl(281, 50%, 50%)" fill="none" opacity="0.60"></circle><circle r="5" cx="701" cy="287" fill="hsl(215, 50%, 50%)" opacity="0.15"></circle><circle r="6" cx="356" cy="211" stroke-width="2" stroke="hsl(65, 50%, 50%)" fill="none" opacity="0.66"></circle><circle r="9" cx="512" cy="367" fill="hsl(106, 50%, 50%)" opacity="0.41"></circle><circle r="8.5" cx="595" cy="67" stroke-width="2" stroke="hsl(195, 50%, 50%)" fill="none" opacity="0.54"></circle><circle r="9" cx="15" cy="584" stroke-width="2" stroke="hsl(265, 50%, 50%)" fill="none" opacity="0.75"></circle><circle r="4.5" cx="384" cy="93" fill="hsl(74, 50%, 50%)" opacity="0.76"></circle><circle r="7.5" cx="565" cy="237" fill="hsl(168, 50%, 50%)" opacity="0.99"></circle><circle r="6.5" cx="570" cy="418" stroke-width="2" stroke="hsl(168, 50%, 50%)" fill="none" opacity="0.21"></circle><circle r="10.5" cx="574" cy="777" stroke-width="2" stroke="hsl(168, 50%, 50%)" fill="none" opacity="0.85"></circle><circle r="5.5" cx="342" cy="783" fill="hsl(73, 50%, 50%)" opacity="0.70"></circle><circle r="6.5" cx="525" cy="428" fill="hsl(131, 50%, 50%)" opacity="0.17"></circle><circle r="11.5" cx="722" cy="679" stroke-width="2" stroke="hsl(215, 50%, 50%)" fill="none" opacity="0.11"></circle><circle r="7.5" cx="208" cy="668" stroke-width="2" stroke="hsl(206, 50%, 50%)" fill="none" opacity="0.86"></circle><circle r="11" cx="711" cy="223" stroke-width="2" stroke="hsl(215, 50%, 50%)" fill="none" opacity="0.36"></circle><circle r="3.5" cx="41" cy="7" stroke-width="2" stroke="hsl(196, 50%, 50%)" fill="none" opacity="0.35"></circle><circle r="10.5" cx="151" cy="277" fill="hsl(245, 50%, 50%)" opacity="0.42"></circle><circle r="11.5" cx="60" cy="695" stroke-width="2" stroke="hsl(271, 50%, 50%)" fill="none" opacity="0.67"></circle><circle r="8" cx="601" cy="32" fill="hsl(188, 50%, 50%)" opacity="0.26"></circle><circle r="9.5" cx="639" cy="272" stroke-width="2" stroke="hsl(208, 50%, 50%)" fill="none" opacity="0.36"></circle><circle r="6" cx="280" cy="709" fill="hsl(131, 50%, 50%)" opacity="0.82"></circle><circle r="10.5" cx="668" cy="337" stroke-width="2" stroke="hsl(212, 50%, 50%)" fill="none" opacity="0.60"></circle><circle r="5" cx="607" cy="492" fill="hsl(194, 50%, 50%)" opacity="0.50"></circle><circle r="11" cx="645" cy="21" stroke-width="2" stroke="hsl(217, 50%, 50%)" fill="none" opacity="0.20"></circle><circle r="9" cx="497" cy="638" fill="hsl(94, 50%, 50%)" opacity="0.77"></circle><circle r="11" cx="211" cy="60" fill="hsl(198, 50%, 50%)" opacity="0.72"></circle><circle r="5.5" cx="498" cy="209" fill="hsl(94, 50%, 50%)" opacity="0.60"></circle><circle r="11.5" cx="210" cy="409" stroke-width="2" stroke="hsl(206, 50%, 50%)" fill="none" opacity="0.12"></circle><circle r="13.5" cx="88" cy="429" stroke-width="2" stroke="hsl(269, 50%, 50%)" fill="none" opacity="0.33"></circle><circle r="11" cx="667" cy="498" fill="hsl(212, 50%, 50%)" opacity="0.62"></circle><circle r="9.5" cx="704" cy="16" stroke-width="2" stroke="hsl(258, 50%, 50%)" fill="none" opacity="0.86"></circle><circle r="8.5" cx="285" cy="461" stroke-width="2" stroke="hsl(131, 50%, 50%)" fill="none" opacity="0.96"></circle><circle r="16" cx="33" cy="150" fill="hsl(293, 50%, 50%)" opacity="0.62"></circle><circle r="5.5" cx="399" cy="217" fill="hsl(49, 50%, 50%)" opacity="0.58"></circle><circle r="7" cx="500" cy="24" stroke-width="2" stroke="hsl(98, 50%, 50%)" fill="none" opacity="0.73"></circle><circle r="8" cx="499" cy="540" fill="hsl(94, 50%, 50%)" opacity="0.31"></circle><circle r="10.5" cx="184" cy="181" fill="hsl(226, 50%, 50%)" opacity="0.33"></circle><circle r="12.5" cx="157" cy="134" stroke-width="2" stroke="hsl(245, 50%, 50%)" fill="none" opacity="0.42"></circle><circle r="10" cx="608" cy="114" stroke-width="2" stroke="hsl(222, 50%, 50%)" fill="none" opacity="0.18"></circle><circle r="8" cx="446" cy="770" stroke-width="2" stroke="hsl(56, 50%, 50%)" fill="none" opacity="0.39"></circle><circle r="3" cx="287" cy="342" fill="hsl(131, 50%, 50%)" opacity="0.25"></circle><circle r="13.5" cx="234" cy="205" stroke-width="2" stroke="hsl(183, 50%, 50%)" fill="none" opacity="0.45"></circle><circle r="9.5" cx="666" cy="239" stroke-width="2" stroke="hsl(212, 50%, 50%)" fill="none" opacity="0.91"></circle><circle r="7.5" cx="45" cy="563" fill="hsl(270, 50%, 50%)" opacity="0.20"></circle><circle r="9.5" cx="630" cy="635" fill="hsl(204, 50%, 50%)" opacity="0.26"></circle><circle r="7.5" cx="529" cy="607" stroke-width="2" stroke="hsl(131, 50%, 50%)" fill="none" opacity="1.00"></circle><circle r="11.5" cx="717" cy="83" stroke-width="2" stroke="hsl(293, 50%, 50%)" fill="none" opacity="0.52"></circle><circle r="9.5" cx="139" cy="458" fill="hsl(252, 50%, 50%)" opacity="0.40"></circle><circle r="9.5" cx="668" cy="55" stroke-width="2" stroke="hsl(259, 50%, 50%)" fill="none" opacity="0.87"></circle><circle r="10" cx="268" cy="281" stroke-width="2" stroke="hsl(144, 50%, 50%)" fill="none" opacity="0.28"></circle><circle r="4" cx="540" cy="494" stroke-width="2" stroke="hsl(144, 50%, 50%)" fill="none" opacity="0.17"></circle><circle r="11.5" cx="586" cy="175" fill="hsl(185, 50%, 50%)" opacity="0.23"></circle><circle r="4.5" cx="336" cy="399" fill="hsl(83, 50%, 50%)" opacity="0.16"></circle><circle r="7.5" cx="465" cy="680" stroke-width="2" stroke="hsl(72, 50%, 50%)" fill="none" opacity="0.49"></circle><circle r="9.5" cx="523" cy="730" fill="hsl(119, 50%, 50%)" opacity="0.62"></circle><circle r="9" cx="598" cy="526" fill="hsl(186, 50%, 50%)" opacity="0.77"></circle><circle r="10.5" cx="674" cy="200" fill="hsl(212, 50%, 50%)" opacity="0.81"></circle><circle r="9.5" cx="16" cy="66" fill="hsl(269, 50%, 50%)" opacity="0.74"></circle><circle r="11.5" cx="50" cy="68" fill="hsl(266, 50%, 50%)" opacity="0.80"></circle><circle r="15" cx="771" cy="477" fill="hsl(216, 50%, 50%)" opacity="0.94"></circle><circle r="7.5" cx="209" cy="240" stroke-width="2" stroke="hsl(206, 50%, 50%)" fill="none" opacity="0.41"></circle><circle r="8.5" cx="208" cy="345" fill="hsl(206, 50%, 50%)" opacity="0.58"></circle><circle r="12" cx="207" cy="106" fill="hsl(204, 50%, 50%)" opacity="0.74"></circle><circle r="5" cx="350" cy="145" stroke-width="2" stroke="hsl(77, 50%, 50%)" fill="none" opacity="0.38"></circle><circle r="5.5" cx="453" cy="722" fill="hsl(63, 50%, 50%)" opacity="1.00"></circle><circle r="6" cx="296" cy="422" fill="hsl(119, 50%, 50%)" opacity="0.55"></circle><circle r="10" cx="737" cy="331" stroke-width="2" stroke="hsl(216, 50%, 50%)" fill="none" opacity="0.39"></circle><circle r="7.5" cx="710" cy="307" fill="hsl(215, 50%, 50%)" opacity="0.68"></circle><circle r="8.5" cx="317" cy="51" fill="hsl(114, 50%, 50%)" opacity="0.77"></circle><circle r="10.5" cx="54" cy="778" stroke-width="2" stroke="hsl(271, 50%, 50%)" fill="none" opacity="0.67"></circle><circle r="11" cx="117" cy="735" stroke-width="2" stroke="hsl(263, 50%, 50%)" fill="none" opacity="0.73"></circle><circle r="7.5" cx="14" cy="505" stroke-width="2" stroke="hsl(265, 50%, 50%)" fill="none" opacity="0.44"></circle><circle r="7" cx="319" cy="751" fill="hsl(94, 50%, 50%)" opacity="0.27"></circle><circle r="7" cx="386" cy="771" fill="hsl(52, 50%, 50%)" opacity="0.39"></circle><circle r="11" cx="732" cy="267" stroke-width="2" stroke="hsl(216, 50%, 50%)" fill="none" opacity="0.37"></circle><circle r="9" cx="18" cy="452" stroke-width="2" stroke="hsl(265, 50%, 50%)" fill="none" opacity="0.31"></circle><circle r="13.5" cx="585" cy="719" stroke-width="2" stroke="hsl(178, 50%, 50%)" fill="none" opacity="0.31"></circle><circle r="9.5" cx="765" cy="697" stroke-width="2" stroke="hsl(216, 50%, 50%)" fill="none" opacity="0.30"></circle><circle r="13" cx="696" cy="774" fill="hsl(214, 50%, 50%)" opacity="0.69"></circle><circle r="9" cx="193" cy="312" fill="hsl(217, 50%, 50%)" opacity="0.94"></circle><circle r="4.5" cx="380" cy="13" fill="hsl(94, 50%, 50%)" opacity="0.89"></circle><circle r="7" cx="543" cy="48" fill="hsl(135, 50%, 50%)" opacity="0.59"></circle><circle r="9" cx="624" cy="403" stroke-width="2" stroke="hsl(200, 50%, 50%)" fill="none" opacity="0.38"></circle><circle r="13.5" cx="731" cy="41" fill="hsl(285, 50%, 50%)" opacity="0.90"></circle><circle r="6" cx="571" cy="107" fill="hsl(185, 50%, 50%)" opacity="0.99"></circle><circle r="15" cx="772" cy="557" fill="hsl(216, 50%, 50%)" opacity="0.61"></circle><circle r="9" cx="231" cy="369" stroke-width="2" stroke="hsl(183, 50%, 50%)" fill="none" opacity="0.34"></circle><circle r="6.5" cx="694" cy="263" stroke-width="2" stroke="hsl(214, 50%, 50%)" fill="none" opacity="0.92"></circle><circle r="5.5" cx="351" cy="30" stroke-width="2" stroke="hsl(100, 50%, 50%)" fill="none" opacity="0.65"></circle><circle r="10.5" cx="89" cy="489" stroke-width="2" stroke="hsl(269, 50%, 50%)" fill="none" opacity="0.99"></circle><circle r="8" cx="390" cy="278" stroke-width="2" stroke="hsl(49, 50%, 50%)" fill="none" opacity="0.73"></circle><circle r="10.5" cx="106" cy="356" fill="hsl(266, 50%, 50%)" opacity="0.42"></circle><circle r="8.5" cx="467" cy="593" stroke-width="2" stroke="hsl(72, 50%, 50%)" fill="none" opacity="0.46"></circle><circle r="10.5" cx="252" cy="126" stroke-width="2" stroke="hsl(155, 50%, 50%)" fill="none" opacity="0.15"></circle><circle r="5" cx="424" cy="638" stroke-width="2" stroke="hsl(48, 50%, 50%)" fill="none" opacity="0.43"></circle><circle r="20" cx="26" cy="226" stroke-width="2" stroke="hsl(268, 50%, 50%)" fill="none" opacity="0.22"></circle><circle r="15" cx="776" cy="33" stroke-width="2" stroke="hsl(279, 50%, 50%)" fill="none" opacity="0.90"></circle><circle r="10" cx="595" cy="567" fill="hsl(186, 50%, 50%)" opacity="0.16"></circle><circle r="5.5" cx="290" cy="314" fill="hsl(119, 50%, 50%)" opacity="0.14"></circle><circle r="11" cx="171" cy="694" stroke-width="2" stroke="hsl(236, 50%, 50%)" fill="none" opacity="0.15"></circle><circle r="3.5" cx="585" cy="8" fill="hsl(155, 50%, 50%)" opacity="0.52"></circle><circle r="14" cx="143" cy="186" fill="hsl(252, 50%, 50%)" opacity="0.66"></circle><circle r="8" cx="587" cy="349" stroke-width="2" stroke="hsl(178, 50%, 50%)" fill="none" opacity="1.00"></circle><circle r="8.5" cx="784" cy="417" stroke-width="2" stroke="hsl(216, 50%, 50%)" fill="none" opacity="0.52"></circle><circle r="5.5" cx="485" cy="443" fill="hsl(82, 50%, 50%)" opacity="0.56"></circle><circle r="6" cx="523" cy="227" stroke-width="2" stroke="hsl(119, 50%, 50%)" fill="none" opacity="0.11"></circle><circle r="5.5" cx="459" cy="510" stroke-width="2" stroke="hsl(63, 50%, 50%)" fill="none" opacity="1.00"></circle><circle r="9.5" cx="147" cy="769" fill="hsl(252, 50%, 50%)" opacity="0.48"></circle><circle r="13.5" cx="265" cy="35" fill="hsl(153, 50%, 50%)" opacity="0.73"></circle><circle r="7" cx="373" cy="720" fill="hsl(58, 50%, 50%)" opacity="0.19"></circle><circle r="4" cx="361" cy="555" fill="hsl(65, 50%, 50%)" opacity="0.77"></circle><circle r="6.5" cx="540" cy="399" fill="hsl(144, 50%, 50%)" opacity="0.28"></circle><circle r="4.5" cx="488" cy="170" fill="hsl(103, 50%, 50%)" opacity="0.96"></circle><circle r="4" cx="412" cy="723" fill="hsl(48, 50%, 50%)" opacity="0.75"></circle><circle r="5.5" cx="11" cy="12" fill="hsl(196, 50%, 50%)" opacity="0.93"></circle><circle r="8" cx="169" cy="435" stroke-width="2" stroke="hsl(236, 50%, 50%)" fill="none" opacity="0.52"></circle><circle r="5" cx="393" cy="38" stroke-width="2" stroke="hsl(83, 50%, 50%)" fill="none" opacity="0.19"></circle><circle r="9" cx="229" cy="275" fill="hsl(183, 50%, 50%)" opacity="0.60"></circle><circle r="7.5" cx="582" cy="137" stroke-width="2" stroke="hsl(200, 50%, 50%)" fill="none" opacity="0.67"></circle><circle r="11.5" cx="141" cy="586" fill="hsl(252, 50%, 50%)" opacity="0.60"></circle><circle r="7" cx="424" cy="339" stroke-width="2" stroke="hsl(48, 50%, 50%)" fill="none" opacity="0.43"></circle><circle r="6" cx="502" cy="98" stroke-width="2" stroke="hsl(119, 50%, 50%)" fill="none" opacity="0.30"></circle><circle r="3.5" cx="419" cy="557" fill="hsl(48, 50%, 50%)" opacity="0.93"></circle><circle r="6" cx="274" cy="786" stroke-width="2" stroke="hsl(144, 50%, 50%)" fill="none" opacity="0.86"></circle><circle r="8" cx="719" cy="380" stroke-width="2" stroke="hsl(215, 50%, 50%)" fill="none" opacity="0.29"></circle><circle r="10.5" cx="215" cy="528" fill="hsl(195, 50%, 50%)" opacity="0.87"></circle><circle r="6" cx="587" cy="441" stroke-width="2" stroke="hsl(178, 50%, 50%)" fill="none" opacity="0.59"></circle><circle r="5.5" cx="66" cy="555" stroke-width="2" stroke="hsl(271, 50%, 50%)" fill="none" opacity="0.59"></circle><circle r="6.5" cx="462" cy="28" stroke-width="2" stroke="hsl(86, 50%, 50%)" fill="none" opacity="0.99"></circle><circle r="6" cx="310" cy="345" stroke-width="2" stroke="hsl(106, 50%, 50%)" fill="none" opacity="0.55"></circle><circle r="11.5" cx="200" cy="457" fill="hsl(217, 50%, 50%)" opacity="0.64"></circle><circle r="6.5" cx="15" cy="530" fill="hsl(265, 50%, 50%)" opacity="0.56"></circle><circle r="9.5" cx="67" cy="590" fill="hsl(271, 50%, 50%)" opacity="0.86"></circle><circle r="10" cx="623" cy="224" stroke-width="2" stroke="hsl(200, 50%, 50%)" fill="none" opacity="0.60"></circle><circle r="8" cx="165" cy="326" stroke-width="2" stroke="hsl(236, 50%, 50%)" fill="none" opacity="0.15"></circle><circle r="6" cx="362" cy="65" stroke-width="2" stroke="hsl(89, 50%, 50%)" fill="none" opacity="0.46"></circle><circle r="6.5" cx="604" cy="383" stroke-width="2" stroke="hsl(194, 50%, 50%)" fill="none" opacity="0.84"></circle><circle r="4.5" cx="414" cy="685" stroke-width="2" stroke="hsl(48, 50%, 50%)" fill="none" opacity="0.34"></circle><circle r="6" cx="440" cy="386" stroke-width="2" stroke="hsl(56, 50%, 50%)" fill="none" opacity="0.86"></circle><circle r="11" cx="112" cy="24" stroke-width="2" stroke="hsl(208, 50%, 50%)" fill="none" opacity="0.78"></circle><circle r="9" cx="127" cy="103" stroke-width="2" stroke="hsl(257, 50%, 50%)" fill="none" opacity="0.27"></circle><circle r="6" cx="567" cy="31" fill="hsl(152, 50%, 50%)" opacity="0.29"></circle><circle r="9" cx="704" cy="351" fill="hsl(215, 50%, 50%)" opacity="0.11"></circle><circle r="5" cx="445" cy="544" fill="hsl(56, 50%, 50%)" opacity="0.63"></circle><circle r="12" cx="183" cy="578" fill="hsl(227, 50%, 50%)" opacity="0.39"></circle><circle r="8.5" cx="709" cy="415" stroke-width="2" stroke="hsl(215, 50%, 50%)" fill="none" opacity="0.31"></circle><circle r="11.5" cx="706" cy="145" stroke-width="2" stroke="hsl(265, 50%, 50%)" fill="none" opacity="0.36"></circle><circle r="10" cx="625" cy="348" stroke-width="2" stroke="hsl(204, 50%, 50%)" fill="none" opacity="0.50"></circle><circle r="7.5" cx="547" cy="144" fill="hsl(161, 50%, 50%)" opacity="0.43"></circle><circle r="9" cx="182" cy="770" stroke-width="2" stroke="hsl(227, 50%, 50%)" fill="none" opacity="0.38"></circle><circle r="6.5" cx="183" cy="282" stroke-width="2" stroke="hsl(227, 50%, 50%)" fill="none" opacity="0.15"></circle><circle r="8.5" cx="777" cy="362" stroke-width="2" stroke="hsl(216, 50%, 50%)" fill="none" opacity="0.43"></circle><circle r="7.5" cx="277" cy="743" stroke-width="2" stroke="hsl(131, 50%, 50%)" fill="none" opacity="0.79"></circle><circle r="9" cx="783" cy="765" stroke-width="2" stroke="hsl(216, 50%, 50%)" fill="none" opacity="0.74"></circle><circle r="9.5" cx="657" cy="768" fill="hsl(210, 50%, 50%)" opacity="0.98"></circle><circle r="7" cx="476" cy="404" stroke-width="2" stroke="hsl(82, 50%, 50%)" fill="none" opacity="0.64"></circle><circle r="14.5" cx="86" cy="90" stroke-width="2" stroke="hsl(275, 50%, 50%)" fill="none" opacity="0.79"></circle><circle r="12" cx="665" cy="403" stroke-width="2" stroke="hsl(212, 50%, 50%)" fill="none" opacity="0.75"></circle><circle r="13" cx="138" cy="630" fill="hsl(252, 50%, 50%)" opacity="0.70"></circle><circle r="8.5" cx="202" cy="18" stroke-width="2" stroke="hsl(187, 50%, 50%)" fill="none" opacity="0.16"></circle><circle r="9" cx="57" cy="493" stroke-width="2" stroke="hsl(271, 50%, 50%)" fill="none" opacity="0.46"></circle><circle r="11.5" cx="111" cy="392" fill="hsl(266, 50%, 50%)" opacity="0.45"></circle><circle r="10.5" cx="609" cy="296" stroke-width="2" stroke="hsl(194, 50%, 50%)" fill="none" opacity="0.58"></circle><circle r="5.5" cx="536" cy="15" fill="hsl(119, 50%, 50%)" opacity="0.80"></circle><circle r="10" cx="634" cy="718" fill="hsl(204, 50%, 50%)" opacity="0.68"></circle><circle r="6" cx="514" cy="498" fill="hsl(119, 50%, 50%)" opacity="0.54"></circle><circle r="7.5" cx="239" cy="670" fill="hsl(170, 50%, 50%)" opacity="0.69"></circle><circle r="6" cx="671" cy="282" stroke-width="2" stroke="hsl(212, 50%, 50%)" fill="none" opacity="0.60"></circle><circle r="8" cx="508" cy="777" stroke-width="2" stroke="hsl(106, 50%, 50%)" fill="none" opacity="0.37"></circle><circle r="11" cx="651" cy="456" stroke-width="2" stroke="hsl(210, 50%, 50%)" fill="none" opacity="0.90"></circle><circle r="6" cx="576" cy="479" fill="hsl(178, 50%, 50%)" opacity="0.45"></circle><circle r="10.5" cx="648" cy="550" stroke-width="2" stroke="hsl(208, 50%, 50%)" fill="none" opacity="0.11"></circle><circle r="8" cx="331" cy="98" fill="hsl(97, 50%, 50%)" opacity="1.00"></circle><circle r="6" cx="565" cy="519" stroke-width="2" stroke="hsl(168, 50%, 50%)" fill="none" opacity="0.84"></circle><circle r="4" cx="326" cy="10" stroke-width="2" stroke="hsl(120, 50%, 50%)" fill="none" opacity="0.86"></circle><circle r="11.5" cx="761" cy="89" fill="hsl(299, 50%, 50%)" opacity="0.93"></circle><circle r="9.5" cx="695" cy="551" stroke-width="2" stroke="hsl(214, 50%, 50%)" fill="none" opacity="0.66"></circle><circle r="4" cx="323" cy="422" fill="hsl(94, 50%, 50%)" opacity="0.82"></circle><circle r="11" cx="165" cy="492" stroke-width="2" stroke="hsl(236, 50%, 50%)" fill="none" opacity="0.30"></circle><circle r="8" cx="246" cy="757" stroke-width="2" stroke="hsl(170, 50%, 50%)" fill="none" opacity="0.27"></circle><circle r="6" cx="748" cy="298" stroke-width="2" stroke="hsl(216, 50%, 50%)" fill="none" opacity="0.26"></circle><circle r="4.5" cx="369" cy="584" fill="hsl(58, 50%, 50%)" opacity="0.71"></circle><circle r="7" cx="789" cy="91" stroke-width="2" stroke="hsl(297, 50%, 50%)" fill="none" opacity="0.37"></circle><circle r="10.5" cx="146" cy="362" stroke-width="2" stroke="hsl(252, 50%, 50%)" fill="none" opacity="0.26"></circle><circle r="4.5" cx="792" cy="696" fill="hsl(216, 50%, 50%)" opacity="0.71"></circle><circle r="11" cx="672" cy="710" stroke-width="2" stroke="hsl(212, 50%, 50%)" fill="none" opacity="0.92"></circle><circle r="12" cx="180" cy="640" stroke-width="2" stroke="hsl(227, 50%, 50%)" fill="none" opacity="0.69"></circle><circle r="3" cx="403" cy="75" fill="hsl(76, 50%, 50%)" opacity="0.61"></circle><circle r="13" cx="226" cy="602" fill="hsl(183, 50%, 50%)" opacity="0.51"></circle><circle r="8" cx="277" cy="589" stroke-width="2" stroke="hsl(131, 50%, 50%)" fill="none" opacity="0.25"></circle><circle r="5" cx="587" cy="633" fill="hsl(178, 50%, 50%)" opacity="0.97"></circle><circle r="6.5" cx="350" cy="618" stroke-width="2" stroke="hsl(73, 50%, 50%)" fill="none" opacity="0.93"></circle><circle r="5.5" cx="429" cy="194" stroke-width="2" stroke="hsl(51, 50%, 50%)" fill="none" opacity="0.60"></circle><circle r="9.5" cx="237" cy="321" stroke-width="2" stroke="hsl(183, 50%, 50%)" fill="none" opacity="0.15"></circle><circle r="6" cx="265" cy="338" stroke-width="2" stroke="hsl(144, 50%, 50%)" fill="none" opacity="0.76"></circle><circle r="9.5" cx="716" cy="181" fill="hsl(230, 50%, 50%)" opacity="0.88"></circle><circle r="6" cx="527" cy="574" stroke-width="2" stroke="hsl(131, 50%, 50%)" fill="none" opacity="0.33"></circle><circle r="7" cx="15" cy="480" stroke-width="2" stroke="hsl(265, 50%, 50%)" fill="none" opacity="0.36"></circle><circle r="13.5" cx="18" cy="766" stroke-width="2" stroke="hsl(265, 50%, 50%)" fill="none" opacity="0.78"></circle><circle r="14.5" cx="72" cy="178" stroke-width="2" stroke="hsl(278, 50%, 50%)" fill="none" opacity="0.61"></circle><circle r="12.5" cx="718" cy="728" stroke-width="2" stroke="hsl(215, 50%, 50%)" fill="none" opacity="0.22"></circle><circle r="5.5" cx="318" cy="491" stroke-width="2" stroke="hsl(94, 50%, 50%)" fill="none" opacity="0.21"></circle><circle r="12.5" cx="152" cy="35" stroke-width="2" stroke="hsl(210, 50%, 50%)" fill="none" opacity="0.30"></circle><circle r="6" cx="306" cy="382" fill="hsl(106, 50%, 50%)" opacity="0.78"></circle><circle r="12" cx="51" cy="732" stroke-width="2" stroke="hsl(271, 50%, 50%)" fill="none" opacity="0.93"></circle><circle r="8" cx="615" cy="437" fill="hsl(200, 50%, 50%)" opacity="0.88"></circle><circle r="8" cx="429" cy="462" stroke-width="2" stroke="hsl(51, 50%, 50%)" fill="none" opacity="0.57"></circle><circle r="10.5" cx="56" cy="408" fill="hsl(271, 50%, 50%)" opacity="0.89"></circle><circle r="9.5" cx="182" cy="730" stroke-width="2" stroke="hsl(227, 50%, 50%)" fill="none" opacity="0.37"></circle><circle r="5.5" cx="331" cy="178" fill="hsl(82, 50%, 50%)" opacity="0.64"></circle><circle r="7.5" cx="19" cy="553" stroke-width="2" stroke="hsl(265, 50%, 50%)" fill="none" opacity="0.65"></circle><circle r="5.5" cx="350" cy="435" fill="hsl(73, 50%, 50%)" opacity="0.30"></circle><circle r="6" cx="774" cy="303" stroke-width="2" stroke="hsl(216, 50%, 50%)" fill="none" opacity="1.00"></circle></svg>