<svg xmlns="http://www.w3.org/2000/svg" version="1.1" xmlns:xlink="http://www.w3.org/1999/xlink" viewBox="0 0 700 700"
    style="overflow: hidden; display: block;" width="700" height="700">
    <defs>
        <linearGradient id="two-3" x1="350" y1="-350" x2="350" y2="350" spreadMethod="pad"
            gradientUnits="userSpaceOnUse">
            <stop offset="0%" stop-color="hsl(230, 55%, 50%)" stop-opacity="1"></stop>
            <stop offset="100%" stop-color="hsl(230, 55%, 70%)" stop-opacity="1"></stop>
        </linearGradient>
    </defs>
    <g id="two-0" transform="matrix(1 0 0 1 0 0)" opacity="1">
        <path transform="matrix(1 0 0 1 350 350)" id="two-469"
            d="M 319.281422 132.250695 C 295.552909 169.920764 239.640126 176.729766 206.916135 206.916135 C 175.77613 235.641351 164.727303 287.579887 127.483485 307.772359 C 90.349737 327.905155 42.218771 317.921526 0 319.270605 C -43.167672 320.650006 -90.427267 331.1141 -130.833443 315.859872 C -171.388221 300.549544 -209.33461 268.812976 -231.648902 231.648901 C -253.319678 195.556592 -244.181239 146.619991 -257.813774 106.789961 C -270.50557 69.708477 -303.361028 38.662237 -309.791383 0 C -316.45015 -40.035561 -304.861175 -82.769537 -294.659683 -122.052037 C -283.66533 -164.387581 -273.706617 -211.986122 -244.903594 -244.903594 C -215.874073 -278.079918 -171.519936 -300.013823 -128.837896 -311.042195 C -87.670233 -321.679276 -42.517911 -309.076504 -0.000001 -309.465438 C 42.86116 -309.857512 91.714567 -333.043339 129.827199 -313.430587 C 168.663014 -293.445686 178.267752 -239.13129 203.434935 -203.434936 C 225.018912 -172.82089 250.31336 -143.459177 271.080383 -112.285172 C 294.986786 -76.398551 329.40751 -42.27393 337.909306 -0.000001 C 346.599033 43.208385 342.771699 94.958835 319.281422 132.250695 Z "
            fill="hsl(70, 69%, 50%)" stroke="undefined" stroke-width="1" stroke-opacity="1" fill-opacity="1"
            visibility="visible" stroke-linecap="butt" stroke-linejoin="miter" stroke-miterlimit="4"></path>
    </g>
</svg>