<svg id="wave" style="transform:rotate(180deg); transition: 0.3s" viewBox="0 0 1440 490" version="1.1"
    xmlns="http://www.w3.org/2000/svg">
    <defs>
        <linearGradient id="sw-gradient-0" x1="0" x2="0" y1="1" y2="0">
            <stop stop-color="rgba(0, 63, 136, 1)" offset="0%"></stop>
            <stop stop-color="rgba(58, 110, 165, 1)" offset="100%"></stop>
        </linearGradient>
    </defs>
    <path style="transform:translate(0, 0px); opacity:1" fill="url(#sw-gradient-0)"
        d="M0,392L60,351.2C120,310,240,229,360,220.5C480,212,600,278,720,269.5C840,261,960,180,1080,196C1200,212,1320,327,1440,326.7C1560,327,1680,212,1800,187.8C1920,163,2040,229,2160,212.3C2280,196,2400,98,2520,73.5C2640,49,2760,98,2880,122.5C3000,147,3120,147,3240,138.8C3360,131,3480,114,3600,106.2C3720,98,3840,98,3960,89.8C4080,82,4200,65,4320,106.2C4440,147,4560,245,4680,285.8C4800,327,4920,310,5040,302.2C5160,294,5280,294,5400,261.3C5520,229,5640,163,5760,130.7C5880,98,6000,98,6120,81.7C6240,65,6360,33,6480,89.8C6600,147,6720,294,6840,343C6960,392,7080,343,7200,285.8C7320,229,7440,163,7560,155.2C7680,147,7800,196,7920,204.2C8040,212,8160,180,8280,171.5C8400,163,8520,180,8580,187.8L8640,196L8640,490L8580,490C8520,490,8400,490,8280,490C8160,490,8040,490,7920,490C7800,490,7680,490,7560,490C7440,490,7320,490,7200,490C7080,490,6960,490,6840,490C6720,490,6600,490,6480,490C6360,490,6240,490,6120,490C6000,490,5880,490,5760,490C5640,490,5520,490,5400,490C5280,490,5160,490,5040,490C4920,490,4800,490,4680,490C4560,490,4440,490,4320,490C4200,490,4080,490,3960,490C3840,490,3720,490,3600,490C3480,490,3360,490,3240,490C3120,490,3000,490,2880,490C2760,490,2640,490,2520,490C2400,490,2280,490,2160,490C2040,490,1920,490,1800,490C1680,490,1560,490,1440,490C1320,490,1200,490,1080,490C960,490,840,490,720,490C600,490,480,490,360,490C240,490,120,490,60,490L0,490Z">
    </path>
</svg>